<mxfile host="app.diagrams.net" modified="2020-04-10T17:05:31.820Z" agent="5.0 (X11)" etag="dUGeT1M9xTd7hXIQ2QQ4" version="12.9.10" type="github">
  <diagram id="e_cucyu6oFF3pkxUbZ2x" name="Page-1">
    <mxGraphModel dx="1422" dy="768" grid="1" gridSize="10" guides="1" tooltips="1" connect="1" arrows="1" fold="1" page="1" pageScale="1" pageWidth="850" pageHeight="1100" math="0" shadow="0">
      <root>
        <mxCell id="0" />
        <mxCell id="1" parent="0" />
        <mxCell id="t0SoLM0F9qWHunGtppOw-1" value="&lt;div&gt;&amp;lt; interaction &amp;gt; Моделирование процесса оплаты выбранного тура&lt;br&gt;&lt;/div&gt;" style="rounded=0;whiteSpace=wrap;html=1;" parent="1" vertex="1">
          <mxGeometry x="40" y="40" width="510" height="40" as="geometry" />
        </mxCell>
        <mxCell id="t0SoLM0F9qWHunGtppOw-2" value="Клиент" style="shape=umlActor;verticalLabelPosition=bottom;labelBackgroundColor=#ffffff;verticalAlign=top;html=1;fillColor=#f8cecc;strokeColor=#b85450;" parent="1" vertex="1">
          <mxGeometry x="80" y="160" width="30" height="60" as="geometry" />
        </mxCell>
        <mxCell id="t0SoLM0F9qWHunGtppOw-3" value="Сайт" style="html=1;fillColor=#e1d5e7;strokeColor=#9673a6;" parent="1" vertex="1">
          <mxGeometry x="160" y="190" width="110" height="50" as="geometry" />
        </mxCell>
        <mxCell id="t0SoLM0F9qWHunGtppOw-4" value="Форма" style="html=1;fillColor=#d5e8d4;strokeColor=#82b366;" parent="1" vertex="1">
          <mxGeometry x="320" y="190" width="110" height="50" as="geometry" />
        </mxCell>
        <mxCell id="t0SoLM0F9qWHunGtppOw-5" value="Проверка данных" style="html=1;fillColor=#dae8fc;strokeColor=#6c8ebf;" parent="1" vertex="1">
          <mxGeometry x="530" y="360" width="110" height="50" as="geometry" />
        </mxCell>
        <mxCell id="t0SoLM0F9qWHunGtppOw-6" value="Транзакция" style="html=1;fillColor=#fad7ac;strokeColor=#b46504;" parent="1" vertex="1">
          <mxGeometry x="800" y="190" width="110" height="50" as="geometry" />
        </mxCell>
        <mxCell id="t0SoLM0F9qWHunGtppOw-7" value="Банк" style="html=1;fillColor=#b0e3e6;strokeColor=#0e8088;" parent="1" vertex="1">
          <mxGeometry x="640" y="190" width="110" height="50" as="geometry" />
        </mxCell>
        <mxCell id="t0SoLM0F9qWHunGtppOw-8" value="" style="endArrow=none;dashed=1;html=1;" parent="1" source="t0SoLM0F9qWHunGtppOw-13" edge="1">
          <mxGeometry width="50" height="50" relative="1" as="geometry">
            <mxPoint x="94.75" y="581.5" as="sourcePoint" />
            <mxPoint x="94.75" y="240" as="targetPoint" />
          </mxGeometry>
        </mxCell>
        <mxCell id="t0SoLM0F9qWHunGtppOw-9" value="" style="endArrow=none;dashed=1;html=1;" parent="1" edge="1">
          <mxGeometry width="50" height="50" relative="1" as="geometry">
            <mxPoint x="215" y="650" as="sourcePoint" />
            <mxPoint x="214.75" y="240" as="targetPoint" />
          </mxGeometry>
        </mxCell>
        <mxCell id="t0SoLM0F9qWHunGtppOw-10" value="" style="endArrow=none;dashed=1;html=1;" parent="1" edge="1">
          <mxGeometry width="50" height="50" relative="1" as="geometry">
            <mxPoint x="374.75" y="480" as="sourcePoint" />
            <mxPoint x="374.75" y="240" as="targetPoint" />
          </mxGeometry>
        </mxCell>
        <mxCell id="t0SoLM0F9qWHunGtppOw-11" value="" style="endArrow=none;dashed=1;html=1;" parent="1" source="t0SoLM0F9qWHunGtppOw-35" edge="1">
          <mxGeometry width="50" height="50" relative="1" as="geometry">
            <mxPoint x="695" y="650" as="sourcePoint" />
            <mxPoint x="694.75" y="240" as="targetPoint" />
          </mxGeometry>
        </mxCell>
        <mxCell id="t0SoLM0F9qWHunGtppOw-12" value="" style="endArrow=none;dashed=1;html=1;" parent="1" edge="1">
          <mxGeometry width="50" height="50" relative="1" as="geometry">
            <mxPoint x="855" y="680" as="sourcePoint" />
            <mxPoint x="854.75" y="240" as="targetPoint" />
          </mxGeometry>
        </mxCell>
        <mxCell id="t0SoLM0F9qWHunGtppOw-13" value="" style="html=1;points=[];perimeter=orthogonalPerimeter;" parent="1" vertex="1">
          <mxGeometry x="90" y="260" width="10" height="570" as="geometry" />
        </mxCell>
        <mxCell id="t0SoLM0F9qWHunGtppOw-15" value="" style="html=1;points=[];perimeter=orthogonalPerimeter;" parent="1" vertex="1">
          <mxGeometry x="210" y="260" width="10" height="550" as="geometry" />
        </mxCell>
        <mxCell id="t0SoLM0F9qWHunGtppOw-16" value="заходит" style="text;html=1;strokeColor=none;fillColor=none;align=center;verticalAlign=middle;whiteSpace=wrap;rounded=0;" parent="1" vertex="1">
          <mxGeometry x="130" y="240" width="40" height="20" as="geometry" />
        </mxCell>
        <mxCell id="t0SoLM0F9qWHunGtppOw-17" value="&lt;font style=&quot;font-size: 9px&quot;&gt;return успешный вход&lt;/font&gt;" style="html=1;verticalAlign=bottom;endArrow=open;dashed=1;endSize=8;" parent="1" target="t0SoLM0F9qWHunGtppOw-13" edge="1">
          <mxGeometry relative="1" as="geometry">
            <mxPoint x="210" y="300" as="sourcePoint" />
            <mxPoint x="130" y="300" as="targetPoint" />
            <mxPoint as="offset" />
          </mxGeometry>
        </mxCell>
        <mxCell id="t0SoLM0F9qWHunGtppOw-18" value="" style="html=1;points=[];perimeter=orthogonalPerimeter;" parent="1" vertex="1">
          <mxGeometry x="370" y="320" width="10" height="40" as="geometry" />
        </mxCell>
        <mxCell id="t0SoLM0F9qWHunGtppOw-19" value="" style="endArrow=classic;html=1;" parent="1" edge="1">
          <mxGeometry width="50" height="50" relative="1" as="geometry">
            <mxPoint x="380" y="360" as="sourcePoint" />
            <mxPoint x="530" y="360" as="targetPoint" />
          </mxGeometry>
        </mxCell>
        <mxCell id="t0SoLM0F9qWHunGtppOw-20" value="" style="endArrow=none;dashed=1;html=1;" parent="1" source="t0SoLM0F9qWHunGtppOw-22" edge="1">
          <mxGeometry width="50" height="50" relative="1" as="geometry">
            <mxPoint x="584.88" y="631.5" as="sourcePoint" />
            <mxPoint x="584.88" y="410" as="targetPoint" />
          </mxGeometry>
        </mxCell>
        <mxCell id="t0SoLM0F9qWHunGtppOw-21" value="&lt;font style=&quot;font-size: 9px&quot;&gt;[не уверен в правильности ввода данных]&lt;/font&gt;" style="text;html=1;strokeColor=none;fillColor=none;align=center;verticalAlign=middle;whiteSpace=wrap;rounded=0;" parent="1" vertex="1">
          <mxGeometry x="370" y="330" width="170" height="20" as="geometry" />
        </mxCell>
        <mxCell id="t0SoLM0F9qWHunGtppOw-22" value="" style="html=1;points=[];perimeter=orthogonalPerimeter;" parent="1" vertex="1">
          <mxGeometry x="580" y="410" width="10" height="150" as="geometry" />
        </mxCell>
        <mxCell id="t0SoLM0F9qWHunGtppOw-23" value="" style="endArrow=none;dashed=1;html=1;" parent="1" source="t0SoLM0F9qWHunGtppOw-27" edge="1">
          <mxGeometry width="50" height="50" relative="1" as="geometry">
            <mxPoint x="374.75" y="571.5" as="sourcePoint" />
            <mxPoint x="374.75" y="470" as="targetPoint" />
          </mxGeometry>
        </mxCell>
        <mxCell id="t0SoLM0F9qWHunGtppOw-24" value="" style="endArrow=classic;html=1;entryX=-0.125;entryY=0.006;entryDx=0;entryDy=0;entryPerimeter=0;" parent="1" target="t0SoLM0F9qWHunGtppOw-18" edge="1">
          <mxGeometry width="50" height="50" relative="1" as="geometry">
            <mxPoint x="100" y="320" as="sourcePoint" />
            <mxPoint x="360" y="319" as="targetPoint" />
          </mxGeometry>
        </mxCell>
        <mxCell id="t0SoLM0F9qWHunGtppOw-25" value="заполняет" style="text;html=1;strokeColor=none;fillColor=none;align=center;verticalAlign=middle;whiteSpace=wrap;rounded=0;" parent="1" vertex="1">
          <mxGeometry x="250" y="300" width="40" height="20" as="geometry" />
        </mxCell>
        <mxCell id="t0SoLM0F9qWHunGtppOw-27" value="" style="html=1;points=[];perimeter=orthogonalPerimeter;" parent="1" vertex="1">
          <mxGeometry x="370" y="520" width="10" height="280" as="geometry" />
        </mxCell>
        <mxCell id="t0SoLM0F9qWHunGtppOw-28" value="" style="endArrow=classic;html=1;exitX=0.95;exitY=0.988;exitDx=0;exitDy=0;exitPerimeter=0;" parent="1" source="t0SoLM0F9qWHunGtppOw-18" edge="1">
          <mxGeometry width="50" height="50" relative="1" as="geometry">
            <mxPoint x="420" y="480" as="sourcePoint" />
            <mxPoint x="381" y="590" as="targetPoint" />
            <Array as="points">
              <mxPoint x="450" y="400" />
              <mxPoint x="450" y="590" />
            </Array>
          </mxGeometry>
        </mxCell>
        <mxCell id="t0SoLM0F9qWHunGtppOw-29" value="&lt;font style=&quot;font-size: 9px&quot;&gt;[уверен в правильности ввода данных]&lt;/font&gt;" style="text;html=1;strokeColor=none;fillColor=none;align=center;verticalAlign=middle;whiteSpace=wrap;rounded=0;" parent="1" vertex="1">
          <mxGeometry x="270" y="390" width="180" height="20" as="geometry" />
        </mxCell>
        <mxCell id="t0SoLM0F9qWHunGtppOw-30" value="&lt;font style=&quot;font-size: 11px&quot;&gt;нажатие кнопки &quot;оплатить&quot;&lt;/font&gt;" style="text;html=1;strokeColor=none;fillColor=none;align=center;verticalAlign=middle;whiteSpace=wrap;rounded=0;" parent="1" vertex="1">
          <mxGeometry x="400" y="470" width="40" height="20" as="geometry" />
        </mxCell>
        <mxCell id="t0SoLM0F9qWHunGtppOw-31" value="return" style="html=1;verticalAlign=bottom;endArrow=open;dashed=1;endSize=8;" parent="1" edge="1">
          <mxGeometry relative="1" as="geometry">
            <mxPoint x="580" y="559.5" as="sourcePoint" />
            <mxPoint x="382" y="560" as="targetPoint" />
          </mxGeometry>
        </mxCell>
        <mxCell id="t0SoLM0F9qWHunGtppOw-32" value="" style="endArrow=classic;html=1;entryX=0.1;entryY=0;entryDx=0;entryDy=0;entryPerimeter=0;" parent="1" source="t0SoLM0F9qWHunGtppOw-27" target="t0SoLM0F9qWHunGtppOw-35" edge="1">
          <mxGeometry width="50" height="50" relative="1" as="geometry">
            <mxPoint x="380" y="600" as="sourcePoint" />
            <mxPoint x="670" y="600" as="targetPoint" />
          </mxGeometry>
        </mxCell>
        <mxCell id="t0SoLM0F9qWHunGtppOw-33" value="платёж" style="text;html=1;strokeColor=none;fillColor=none;align=center;verticalAlign=middle;whiteSpace=wrap;rounded=0;" parent="1" vertex="1">
          <mxGeometry x="510" y="600" width="40" height="20" as="geometry" />
        </mxCell>
        <mxCell id="t0SoLM0F9qWHunGtppOw-34" value="" style="endArrow=classic;html=1;entryX=0.1;entryY=-0.004;entryDx=0;entryDy=0;entryPerimeter=0;" parent="1" target="t0SoLM0F9qWHunGtppOw-36" edge="1">
          <mxGeometry width="50" height="50" relative="1" as="geometry">
            <mxPoint x="700" y="630" as="sourcePoint" />
            <mxPoint x="840" y="630" as="targetPoint" />
          </mxGeometry>
        </mxCell>
        <mxCell id="t0SoLM0F9qWHunGtppOw-35" value="" style="html=1;points=[];perimeter=orthogonalPerimeter;" parent="1" vertex="1">
          <mxGeometry x="690" y="620" width="10" height="150" as="geometry" />
        </mxCell>
        <mxCell id="t0SoLM0F9qWHunGtppOw-36" value="" style="html=1;points=[];perimeter=orthogonalPerimeter;" parent="1" vertex="1">
          <mxGeometry x="850" y="630" width="10" height="120" as="geometry" />
        </mxCell>
        <mxCell id="t0SoLM0F9qWHunGtppOw-37" value="выполнение" style="text;html=1;strokeColor=none;fillColor=none;align=center;verticalAlign=middle;whiteSpace=wrap;rounded=0;" parent="1" vertex="1">
          <mxGeometry x="760" y="610" width="40" height="20" as="geometry" />
        </mxCell>
        <mxCell id="t0SoLM0F9qWHunGtppOw-38" value="&lt;font style=&quot;font-size: 10px&quot;&gt;return транзакция завершена&lt;/font&gt;" style="html=1;verticalAlign=bottom;endArrow=open;dashed=1;endSize=8;" parent="1" edge="1">
          <mxGeometry relative="1" as="geometry">
            <mxPoint x="850" y="750" as="sourcePoint" />
            <mxPoint x="700" y="750" as="targetPoint" />
          </mxGeometry>
        </mxCell>
        <mxCell id="t0SoLM0F9qWHunGtppOw-39" value="" style="endArrow=none;dashed=1;html=1;entryX=0.6;entryY=1.014;entryDx=0;entryDy=0;entryPerimeter=0;" parent="1" target="t0SoLM0F9qWHunGtppOw-35" edge="1">
          <mxGeometry width="50" height="50" relative="1" as="geometry">
            <mxPoint x="696" y="840" as="sourcePoint" />
            <mxPoint x="690" y="780" as="targetPoint" />
          </mxGeometry>
        </mxCell>
        <mxCell id="t0SoLM0F9qWHunGtppOw-40" value="" style="endArrow=none;dashed=1;html=1;" parent="1" edge="1">
          <mxGeometry width="50" height="50" relative="1" as="geometry">
            <mxPoint x="585" y="580" as="sourcePoint" />
            <mxPoint x="585" y="560" as="targetPoint" />
          </mxGeometry>
        </mxCell>
        <mxCell id="t0SoLM0F9qWHunGtppOw-41" value="" style="shape=umlDestroy;whiteSpace=wrap;html=1;strokeWidth=1;" parent="1" vertex="1">
          <mxGeometry x="575" y="580" width="20" height="20" as="geometry" />
        </mxCell>
        <mxCell id="t0SoLM0F9qWHunGtppOw-42" value="return платёж совершён" style="html=1;verticalAlign=bottom;endArrow=open;dashed=1;endSize=8;entryX=1;entryY=0.893;entryDx=0;entryDy=0;entryPerimeter=0;" parent="1" target="t0SoLM0F9qWHunGtppOw-27" edge="1">
          <mxGeometry relative="1" as="geometry">
            <mxPoint x="690" y="770" as="sourcePoint" />
            <mxPoint x="610" y="770" as="targetPoint" />
          </mxGeometry>
        </mxCell>
        <mxCell id="t0SoLM0F9qWHunGtppOw-43" value="" style="endArrow=none;dashed=1;html=1;entryX=0.6;entryY=1.014;entryDx=0;entryDy=0;entryPerimeter=0;" parent="1" edge="1">
          <mxGeometry width="50" height="50" relative="1" as="geometry">
            <mxPoint x="855" y="770" as="sourcePoint" />
            <mxPoint x="854.6" y="749.9999999999999" as="targetPoint" />
          </mxGeometry>
        </mxCell>
        <mxCell id="t0SoLM0F9qWHunGtppOw-44" value="" style="shape=umlDestroy;whiteSpace=wrap;html=1;strokeWidth=1;" parent="1" vertex="1">
          <mxGeometry x="845" y="770" width="20" height="20" as="geometry" />
        </mxCell>
        <mxCell id="t0SoLM0F9qWHunGtppOw-45" value="return покупка тура совершена" style="html=1;verticalAlign=bottom;endArrow=open;dashed=1;endSize=8;entryX=1.04;entryY=0.947;entryDx=0;entryDy=0;entryPerimeter=0;" parent="1" target="t0SoLM0F9qWHunGtppOw-13" edge="1">
          <mxGeometry relative="1" as="geometry">
            <mxPoint x="370" y="799.2" as="sourcePoint" />
            <mxPoint x="110" y="799" as="targetPoint" />
          </mxGeometry>
        </mxCell>
        <mxCell id="t0SoLM0F9qWHunGtppOw-46" value="" style="endArrow=none;dashed=1;html=1;entryX=0.6;entryY=1.014;entryDx=0;entryDy=0;entryPerimeter=0;" parent="1" edge="1">
          <mxGeometry width="50" height="50" relative="1" as="geometry">
            <mxPoint x="375" y="840" as="sourcePoint" />
            <mxPoint x="374.6" y="799.9999999999999" as="targetPoint" />
          </mxGeometry>
        </mxCell>
        <mxCell id="t0SoLM0F9qWHunGtppOw-47" value="" style="endArrow=none;dashed=1;html=1;entryX=0.6;entryY=1.014;entryDx=0;entryDy=0;entryPerimeter=0;" parent="1" edge="1">
          <mxGeometry width="50" height="50" relative="1" as="geometry">
            <mxPoint x="215" y="840" as="sourcePoint" />
            <mxPoint x="214.5999999999999" y="810" as="targetPoint" />
          </mxGeometry>
        </mxCell>
        <mxCell id="t0SoLM0F9qWHunGtppOw-48" value="" style="endArrow=none;dashed=1;html=1;entryX=0.6;entryY=1.014;entryDx=0;entryDy=0;entryPerimeter=0;" parent="1" edge="1">
          <mxGeometry width="50" height="50" relative="1" as="geometry">
            <mxPoint x="95" y="840" as="sourcePoint" />
            <mxPoint x="94.59999999999991" y="830" as="targetPoint" />
          </mxGeometry>
        </mxCell>
        <mxCell id="_2rzKq_FTNcjfHZZk8DX-1" value="" style="endArrow=open;endFill=1;endSize=12;html=1;" edge="1" parent="1">
          <mxGeometry width="160" relative="1" as="geometry">
            <mxPoint x="90" y="260" as="sourcePoint" />
            <mxPoint x="210" y="260" as="targetPoint" />
          </mxGeometry>
        </mxCell>
        <mxCell id="_2rzKq_FTNcjfHZZk8DX-2" value="" style="ellipse;whiteSpace=wrap;html=1;aspect=fixed;" vertex="1" parent="1">
          <mxGeometry x="110" y="250" width="10" height="10" as="geometry" />
        </mxCell>
      </root>
    </mxGraphModel>
  </diagram>
</mxfile>
